<svg id="Layer_1" data-name="Layer 1" xmlns="http://www.w3.org/2000/svg" viewBox="0 0 1080 264.43"><defs><style>.cls-1{fill:#0ca7cf;}.cls-2{fill:#ed2024;}.cls-3{fill:#ba202e;}</style></defs><polygon class="cls-1" points="220.42 66.98 94.46 66.98 94.46 88.64 143.51 88.64 143.51 227.47 167.32 227.47 167.32 88.64 220.42 88.64 220.42 66.98"/><path class="cls-1" d="M278.28,219.13l-25.87-37.6c1.33-.31,3.3-.65,4.51-1,32.18-9.66,26.6-50.54-7.31-53.67-.85-.08-1.33-.1-1.33-.1h-64.1v3.41H189v89h-7.26v4.17h30.12v-4.17h-8.09v-37.6h33.73l25.79,37.6h-3.21v4.17h26.19v-4.17Zm-74.52-48.31V137.46h45.09c21.15.35,26.29,25.45,6.82,32.54a19.56,19.56,0,0,1-3.26.82Z"/><rect class="cls-1" x="303.84" y="126.74" width="15.24" height="96.56"/><rect class="cls-1" x="299.63" y="126.46" width="22.8" height="3.84"/><rect class="cls-1" x="299.63" y="219.46" width="22.8" height="3.84"/><circle class="cls-2" cx="311.46" cy="95.71" r="15.72"/><path class="cls-3" d="M393.82,179.83s47.49-105.23,126.55-150c0,0-68,63.36-103.26,189.63Z"/><polygon class="cls-2" points="333.53 130.29 364.72 130.29 417.11 219.46 378.53 219.46 333.53 130.29"/><path class="cls-1" d="M508.77,118.32c-33.12,0-60,23.53-60,52.49s26.88,52.49,60,52.49,60-23.5,60-52.49S541.93,118.32,508.77,118.32Zm0,93.71c-26,0-47.14-18.43-47.14-41.22s21.12-41.22,47.14-41.22,47.17,18.47,47.17,41.22S534.83,212,508.77,212Z"/><polygon class="cls-1" points="661.17 122.73 645.69 122.73 639.86 122.73 639.86 126.66 642.98 126.66 617.84 163.09 590 126.66 593.67 126.66 593.67 122.73 587 122.73 571.16 122.73 567 122.73 567 126.66 574.2 126.66 609.95 173 609.95 215.72 604.14 215.72 604.14 219.46 609.95 219.46 624.03 219.46 630.34 219.46 630.34 215.72 624.03 215.72 624.03 174.51 658.35 126.66 666.53 126.66 666.53 122.73 661.17 122.73"/><path class="cls-1" d="M758.8,214.29l-43-87.64h7.67v-4.08H693.75v4.08h6.48l-43.34,87.64H653v5.17h26.15v-5.17h-6.67L682.16,193h50l9.2,21.27H738v5.17h26.16v-5.17Zm-71.7-32.07,20.74-45.4,19.63,45.4Z"/><path class="cls-1" d="M883.17,175v-3.78h-6.51v-.13H838.88v-7.52h-4.36v22.34h4.36V182.7h22.9v18h.05A47.26,47.26,0,0,1,829.75,213c-25,0-45.39-18.81-45.39-41.93s20.37-42,45.39-42a46.63,46.63,0,0,1,36,16.52l-2.73,4,4.12,2.83L880.1,133.6,876,130.78l-3.7,5.4A57.85,57.85,0,0,0,829.75,118c-31.15,0-56.54,23.83-56.54,53.12s25.39,53.08,56.54,53.08a57.68,57.68,0,0,0,46.62-23.08h3.33v-4h-3V175Z"/><polygon class="cls-1" points="983.88 137.68 983.88 119.22 980.01 119.22 980.01 122.91 914.88 122.91 901.43 122.91 898.1 122.91 898.1 126.9 901.43 126.9 901.43 134.04 901.43 163.57 901.43 175 901.43 208.34 901.43 215.78 898.03 215.78 898.03 219.53 901.43 219.53 911.67 219.53 917.14 219.53 980.01 219.53 980.01 222.21 983.88 222.21 983.88 203.75 980.01 203.75 980.01 208.34 917.14 208.34 917.14 175 957.8 175 957.8 178.51 961.67 178.51 961.67 175 961.67 163.57 961.67 160.06 957.8 160.06 957.8 163.57 917.14 163.57 917.14 134.04 980.01 134.04 980.01 137.68 983.88 137.68"/><path class="cls-1" d="M896.5,95.24c-3.74-5-14.33-16-34.72-16.2l-49.64,1.19-50-26a62.43,62.43,0,0,0-28.84-7.06H720.7l51,32.39v9.76H731.42L717.59,78a13.89,13.89,0,0,0-9.77-3.09l-7.84.56,14.29,16.19h-8.81l3.25,3.61a3.46,3.46,0,0,0,2.58,1.16l60.35.38-36,30.72h8.46a45.88,45.88,0,0,0,20.92-5l49.56-25.39,80.74.51A1.47,1.47,0,0,0,896.5,95.24Z"/></svg>